HIERARCHY
ROOT Hips
{
	OFFSET 64.097298 13.035884 96.667397
	CHANNELS 6 Xposition Yposition Zposition Xrotation Yrotation Zrotation
	JOINT spine
	{
		OFFSET 0.000000 -0.458068 7.965683
		CHANNELS 3 Xrotation Yrotation Zrotation
		JOINT spine1
		{
			OFFSET 0.000000 -0.000002 10.243103
			CHANNELS 3 Xrotation Yrotation Zrotation
			JOINT spine2
			{
				OFFSET 0.000000 -0.000001 9.814751
				CHANNELS 3 Xrotation Yrotation Zrotation
				JOINT Neck
				{
					OFFSET 0.000000 -1.201385 25.198593
					CHANNELS 3 Xrotation Yrotation Zrotation
					JOINT Head
					{
						OFFSET 0.000000 -0.000001 7.613144
						CHANNELS 3 Xrotation Yrotation Zrotation
						End Site
						{
							OFFSET 0.000000 6.077327 18.428101
						}
					}
				}
				JOINT RightShoulder
				{
					OFFSET -4.132698 0.575449 10.599197
					CHANNELS 3 Xrotation Yrotation Zrotation
					JOINT RightArm
					{
						OFFSET 0.000000 -0.000002 13.901794
						CHANNELS 3 Xrotation Yrotation Zrotation
						JOINT RightArmRoll
						{
							OFFSET 0.000000 -0.000002 7.017883
							CHANNELS 3 Xrotation Yrotation Zrotation
							JOINT RightForeArm
							{
								OFFSET 0.000000 -0.000003 20.440598
								CHANNELS 3 Xrotation Yrotation Zrotation
								JOINT RightForeArmRoll
								{
									OFFSET 0.000000 -0.000002 7.875168
									CHANNELS 3 Xrotation Yrotation Zrotation
									JOINT RightHand
									{
										OFFSET 0.000000 -0.000002 15.803696
										CHANNELS 3 Xrotation Yrotation Zrotation
										End Site
										{
											OFFSET 0.000000 0.000000 0.100006
										}
									}
								}
							}
						}
					}
				}
				JOINT LeftShoulder
				{
					OFFSET 4.132698 0.575449 10.599197
					CHANNELS 3 Xrotation Yrotation Zrotation
					JOINT LeftArm
					{
						OFFSET 0.000000 -0.000002 13.901794
						CHANNELS 3 Xrotation Yrotation Zrotation
						JOINT LeftArmRoll
						{
							OFFSET 0.000000 -0.000002 7.017883
							CHANNELS 3 Xrotation Yrotation Zrotation
							JOINT LeftForeArm
							{
								OFFSET 0.000000 -0.000003 20.440598
								CHANNELS 3 Xrotation Yrotation Zrotation
								JOINT LeftForeArmRoll
								{
									OFFSET 0.000000 -0.000002 7.875153
									CHANNELS 3 Xrotation Yrotation Zrotation
									JOINT LeftHand
									{
										OFFSET 0.000000 -0.000002 15.803696
										CHANNELS 3 Xrotation Yrotation Zrotation
										End Site
										{
											OFFSET 0.000000 0.000000 0.100006
										}
									}
								}
							}
						}
					}
				}
			}
		}
	}
	JOINT RightUpLeg
	{
		OFFSET -7.060478 1.086101 -1.294701
		CHANNELS 3 Xrotation Yrotation Zrotation
		JOINT RightUpLegRoll
		{
			OFFSET 0.000000 -0.000003 18.530800
			CHANNELS 3 Xrotation Yrotation Zrotation
			JOINT RightLeg
			{
				OFFSET 0.000000 0.000003 -22.947601
				CHANNELS 3 Xrotation Yrotation Zrotation
				JOINT RightLegRoll
				{
					OFFSET 0.000000 -0.000003 23.022598
					CHANNELS 3 Xrotation Yrotation Zrotation
					JOINT RightFoot
					{
						OFFSET 0.000000 -0.000004 19.162498
						CHANNELS 3 Xrotation Yrotation Zrotation
						JOINT RightToeBase
						{
							OFFSET 0.000000 -0.000002 16.018799
							CHANNELS 3 Xrotation Yrotation Zrotation
							End Site
							{
								OFFSET 0.006790 0.894205 7.757812
							}
						}
					}
				}
			}
		}
	}
	JOINT LeftUpLeg
	{
		OFFSET 7.060478 1.086101 -1.294701
		CHANNELS 3 Xrotation Yrotation Zrotation
		JOINT LeftUpLegRoll
		{
			OFFSET 0.000000 -0.000003 18.530899
			CHANNELS 3 Xrotation Yrotation Zrotation
			JOINT LeftLeg
			{
				OFFSET 0.000000 -0.000004 22.947495
				CHANNELS 3 Xrotation Yrotation Zrotation
				JOINT LeftLegRoll
				{
					OFFSET 0.000000 -0.000004 23.235504
					CHANNELS 3 Xrotation Yrotation Zrotation
					JOINT LeftFoot
					{
						OFFSET 0.000000 -0.000004 18.949600
						CHANNELS 3 Xrotation Yrotation Zrotation
						JOINT LeftToeBase
						{
							OFFSET 0.000000 -0.000002 16.018799
							CHANNELS 3 Xrotation Yrotation Zrotation
							End Site
							{
								OFFSET -0.030426 0.894205 7.757812
							}
						}
					}
				}
			}
		}
	}
}
MOTION
Frames: 8
Frame Time: 0.041667
52.390099 -1.796827 96.719406 -3.291174 1.124163 4.548401 -0.652241 -0.311789 -0.324081 2.696671 -0.604589 -0.647187 4.341729 -0.612155 -0.639818 11.079612 1.570056 -3.489051 21.904873 -6.986821 -1.594316 -24.815203 -78.009209 -28.629440 95.144945 -67.566342 102.830479 -0.000004 0.000009 -0.000002 15.744068 -10.399491 0.509340 -0.000007 0.000005 -3.000001 -5.000214 -7.998764 0.000162 -4.011824 60.654484 4.910613 -44.971970 120.830186 44.768690 -0.000002 0.000007 0.000001 9.396130 10.000600 -0.086618 -0.000001 -0.000007 2.999989 -5.000195 7.998795 -0.000133 1.082684 -177.141503 2.714629 -179.999991 0.000005 -1.187997 173.574054 -1.267983 -0.544803 -0.000003 -0.000002 0.069182 68.734994 6.949009 2.002398 25.456885 -7.344569 -0.000007 4.928692 173.628449 -4.201780 -0.000020 -0.000004 -1.248150 -5.452620 3.527068 0.291593 -0.000003 0.000003 -0.068932 68.543475 -6.933260 -2.047945 25.456883 7.349537 -0.000000 
52.401192 -1.795006 96.720215 -3.276811 1.123740 4.542504 -0.648091 -0.312490 -0.325827 2.704952 -0.607659 -0.650763 4.350010 -0.615277 -0.643363 11.044132 1.576420 -3.484993 21.908096 -6.978628 -1.593333 -24.788278 -77.999381 -28.601094 95.155320 -67.574497 102.835950 -0.000003 0.000008 -0.000002 15.767338 -10.400642 0.511121 -0.000008 0.000006 -3.000001 -5.000210 -7.998762 0.000162 -4.010053 60.649136 4.908025 -44.958924 120.814626 44.747038 0.000000 0.000006 0.000001 9.375101 10.000602 -0.085320 -0.000002 -0.000007 2.999989 -5.000193 7.998794 -0.000135 1.048882 -177.142472 2.703754 -179.999991 0.000005 -1.187997 173.547484 -1.258972 -0.546374 -0.000003 -0.000002 0.069127 68.734243 6.949001 2.002443 25.456880 -7.344569 -0.000006 4.897976 173.630157 -4.197769 -0.000020 -0.000004 -1.248069 -5.476896 3.528758 0.292477 -0.000002 0.000003 -0.069123 68.543790 -6.933284 -2.047829 25.456882 7.349536 0.000002 
52.394291 -1.786548 96.718002 -3.262297 1.123367 4.536866 -0.644052 -0.313138 -0.327634 2.713014 -0.610706 -0.654461 4.358074 -0.618379 -0.647030 11.008952 1.582547 -3.480890 21.911325 -6.970354 -1.592314 -24.760511 -77.989531 -28.571839 95.167157 -67.582700 102.843524 -0.000004 0.000008 -0.000001 15.790482 -10.401313 0.512808 -0.000009 0.000005 -3.000001 -5.000213 -7.998763 0.000162 -4.008038 60.643795 4.905163 -44.947071 120.798357 44.726900 0.000000 0.000007 0.000001 9.353669 10.001011 -0.084076 -0.000000 -0.000007 2.999990 -5.000191 7.998794 -0.000134 1.015237 -177.144453 2.693022 -179.999991 0.000005 -1.187997 173.521584 -1.249976 -0.546926 -0.000003 -0.000002 0.069045 68.733327 6.949049 2.002311 25.456885 -7.344570 -0.000006 4.867096 173.632848 -4.193642 -0.000020 -0.000004 -1.247988 -5.501031 3.530406 0.293320 -0.000003 0.000003 -0.069304 68.544206 -6.933276 -2.047902 25.456885 7.349537 -0.000000 
52.397690 -1.780572 96.720192 -3.247674 1.123034 4.531410 -0.640090 -0.313750 -0.329482 2.720916 -0.613736 -0.658242 4.365977 -0.621466 -0.650781 10.973871 1.588498 -3.476758 21.914440 -6.962018 -1.591295 -24.732316 -77.979723 -28.542121 95.180059 -67.591156 102.852609 -0.000004 0.000008 -0.000001 15.813607 -10.401599 0.514425 -0.000004 0.000006 -3.000001 -5.000211 -7.998762 0.000162 -4.005841 60.638447 4.902083 -44.935046 120.782033 44.706727 0.000000 0.000006 0.000001 9.331926 10.001623 -0.082850 -0.000001 -0.000007 2.999990 -5.000190 7.998794 -0.000134 0.981707 -177.146420 2.682417 -179.999991 0.000005 -1.187997 173.496121 -1.240968 -0.548471 -0.000003 -0.000002 0.068945 68.732358 6.949028 2.002367 25.456885 -7.344569 -0.000007 4.836128 173.634556 -4.189561 -0.000020 -0.000004 -1.247930 -5.525067 3.532036 0.294140 -0.000003 0.000004 -0.069477 68.544534 -6.933297 -2.047887 25.456882 7.349536 0.000000 
52.394192 -1.794645 96.719711 -3.233000 1.122711 4.526043 -0.636173 -0.314343 -0.331354 2.728739 -0.616758 -0.662072 4.373800 -0.624545 -0.654581 10.938887 1.594341 -3.472611 21.917664 -6.953652 -1.590247 -24.703703 -77.969840 -28.511969 95.193460 -67.599598 102.862444 -0.000003 0.000008 -0.000001 15.836719 -10.401688 0.516016 -0.000007 0.000005 -3.000000 -5.000211 -7.998763 0.000162 -4.003573 60.633201 4.898927 -44.924353 120.765053 44.688125 0.000002 0.000007 0.000001 9.310026 10.002333 -0.081642 -0.000001 -0.000007 2.999990 -5.000193 7.998794 -0.000134 0.948245 -177.148387 2.671888 -179.999991 0.000005 -1.187997 173.470877 -1.231961 -0.548991 -0.000003 -0.000002 0.068834 68.731313 6.949033 2.002435 25.456883 -7.344571 -0.000006 4.805101 173.636249 -4.185472 -0.000020 -0.000004 -1.247870 -5.549054 3.533655 0.294946 -0.000003 0.000003 -0.069646 68.544958 -6.933288 -2.047856 25.456882 7.349537 -0.000001 
52.400192 -1.788325 96.721207 -3.218298 1.122397 4.520717 -0.632264 -0.314929 -0.333229 2.736530 -0.619778 -0.665914 4.381594 -0.627621 -0.658392 10.903904 1.600156 -3.468441 21.920785 -6.945280 -1.589217 -24.675247 -77.960059 -28.481967 95.206888 -67.608136 102.872348 -0.000001 0.000007 -0.000001 15.859836 -10.401776 0.517599 -0.000011 0.000005 -3.000000 -5.000215 -7.998763 0.000162 -4.001276 60.627874 4.895739 -44.912308 120.748742 44.668016 0.000002 0.000006 0.000001 9.288086 10.003147 -0.080443 0.000000 -0.000007 2.999989 -5.000193 7.998794 -0.000134 0.914801 -177.150354 2.661373 -179.999991 0.000005 -1.187997 173.445728 -1.222957 -0.549501 -0.000003 -0.000002 0.068721 68.730254 6.949040 2.002402 25.456885 -7.344570 -0.000006 4.774064 173.637971 -4.181378 -0.000019 -0.000004 -1.247800 -5.573019 3.535263 0.295748 -0.000003 0.000003 -0.069813 68.545470 -6.933251 -2.047918 25.456883 7.349538 -0.000000 
52.403896 -1.761287 96.720299 -3.203638 1.122064 4.515330 -0.628335 -0.315527 -0.335095 2.744373 -0.622805 -0.669730 4.389436 -0.630705 -0.662178 10.868919 1.606020 -3.464284 21.923915 -6.936920 -1.588191 -24.646816 -77.950169 -28.451993 95.220077 -67.616585 102.881910 -0.000002 0.000007 -0.000001 15.882948 -10.401863 0.519182 -0.000011 0.000005 -3.000001 -5.000214 -7.998763 0.000162 -3.999033 60.622628 4.892603 -44.900410 120.732473 44.647994 -0.000000 0.000006 0.000001 9.266225 10.003856 -0.079222 0.000001 -0.000007 2.999990 -5.000190 7.998795 -0.000134 0.881325 -177.152335 2.650828 -179.999991 0.000005 -1.187997 173.420456 -1.213952 -0.551004 -0.000003 -0.000002 0.068613 68.729298 6.949017 2.002459 25.456889 -7.344569 -0.000007 4.743038 173.640662 -4.177211 -0.000020 -0.000004 -1.247740 -5.597014 3.536881 0.296561 -0.000003 0.000003 -0.069985 68.545887 -6.933243 -2.047890 25.456885 7.349536 -0.000000 
52.393295 -1.760066 96.718811 -3.189051 1.121701 4.509823 -0.624349 -0.316150 -0.336931 2.752324 -0.625844 -0.673485 4.397389 -0.633800 -0.665902 10.833836 1.612003 -3.460139 21.927031 -6.928605 -1.587179 -24.618929 -77.940334 -28.422599 95.232727 -67.624958 102.890619 -0.000003 0.000008 -0.000003 15.906083 -10.402333 0.520837 -0.000005 0.000005 -3.000000 -5.000211 -7.998763 0.000162 -3.996918 60.617280 4.889615 -44.888505 120.716203 44.627906 -0.000001 0.000007 0.000001 9.244574 10.004362 -0.077984 0.000001 -0.000007 2.999990 -5.000193 7.998795 -0.000134 0.847759 -177.154302 2.640200 -179.999991 0.000005 -1.187997 173.394843 -1.204946 -0.551522 -0.000003 -0.000002 0.068518 68.728362 6.949028 2.002420 25.456887 -7.344569 -0.000006 4.712099 173.642397 -4.173163 -0.000020 -0.000005 -1.247670 -5.621081 3.538516 0.297394 -0.000003 0.000003 -0.070158 68.546208 -6.933268 -2.047974 25.456883 7.349535 0.000002 
